<svg xmlns="http://www.w3.org/2000/svg" width="32" height="32" viewBox="0 0 32 32"><g transform="translate(0 -1020.362)"><path fill="#25b39e" d="m 16,1025.3621 c -3.65222,-2e-4 -7.01405,1.9907 -8.76953,5.1934 1.41511,0.2629 2.26758,1.0947 2.26758,2.3378 0,1.0991 -0.65368,1.9196 -1.71094,2.17 1.30767,0.2226 2.08594,1.1553 2.08594,2.4629 0,1.4275 -0.99224,2.3595 -2.65235,2.6015 1.74633,3.2216 5.11485,5.23 8.7793,5.2344 3.67409,0 7.05169,-2.0169 8.79688,-5.25 l 0,-3.1016 -3.63086,-6.5527 1.65625,0 2.78125,4.7441 0.36132,-0.6289 C 25.5533,1029.374 21.2153,1025.3642 16,1025.3621 Z m -4.38672,5.0957 1.64258,0 0,5.7031 c 0,1.6415 1.01543,2.6309 2.61523,2.6309 1.58589,0 2.57227,-0.9754 2.57227,-2.6309 l 0,-5.7031 1.64258,0 0,5.7031 c 0,2.5458 -1.59928,4.1055 -4.22852,4.1055 -2.62924,0 -4.24414,-1.5597 -4.24414,-4.1055 z"/><g fill="#34485c" font-family="sans-serif" font-size="13.911" font-weight="400" letter-spacing="0" word-spacing="0" style="line-height:125%"><path d="M1.9999949 1030.4582l0 9.738 4.3264192 0c2.1979879 0 3.5473856-1.0016 3.5473856-2.671 0-1.3077-.7790337-2.2397-2.0866974-2.4623 1.05726-.2504 1.7110919-1.0712 1.7110919-2.1702 0-1.5163-1.2520185-2.4345-3.2691593-2.4345l-4.22904 0zm1.6415353 1.4607l2.5040368 0c1.0433487 0 1.6693579.4452 1.6693579 1.266 0 .8207-.6260092 1.3076-1.6693579 1.3076l-2.5040368 0 0-2.5736zm0 4.0204l2.5040368 0c1.2798411 0 2.0449635.5147 2.0449635 1.3772 0 .9182-.7651224 1.419-2.0449635 1.419l-2.5040368 0 0-2.7962zM20.085792 1030.4582l-1.641535 0 0 5.7037c0 1.6554-.987704 2.6292-2.573594 2.6292-1.599801 0-2.615327-.9877-2.615327-2.6292l0-5.7037-1.641535 0 0 5.7037c0 2.5458 1.613712 4.1038 4.242951 4.1038 2.629239 0 4.22904-1.558 4.22904-4.1038l0-5.7037zM26.424788 1036.9548l3.575208-6.4966-1.669358 0-2.726618 4.7438-2.782263-4.7438-1.655447 0 3.630854 6.5523 0 3.1857 1.627624 0 0-3.2414z" font-family="Montserrat" style="-inkscape-font-specification:Montserrat"/></g><path fill="#34485c" style="line-height:normal;text-indent:0;text-align:start;text-decoration-line:none;text-decoration-style:solid;text-decoration-color:#000;text-transform:none;block-progression:tb;isolation:auto;mix-blend-mode:normal" d="M15.667969 1022.373l-.34961.01-.03516 0-.646484.057-.498047.043.08789.9961.498047-.043.613282-.055.01367 0 .335938-.01.5-.01-.01953-1zm1.449219 1.045l.496093.059.214844.025.01172 0 .724609.1367.492188.094.185547-.9824-.492188-.094-.759766-.1426-.0332-.01-.226562-.025-.496094-.061zm-4.542969-.5938l-.705078.2129-.0332.01-.246094.092-.46875.1758.351562.9375.466797-.1758.242188-.09.0059 0 .673828-.2012.478516-.1445-.28711-.9571zm7.341797 1.1817l.46289.1894.541016.2227.0098 0 .332031.164.449219.2188.441406-.8965-.449219-.2207-.363281-.1777-.03125-.014-.550782-.2266-.46289-.1894zm-10.2070316-.014l-.2148438.1152-.029297.018-.640625.4004-.4238282.2637.53125.8496.4238282-.2657.640625-.4003.1855472-.1.441406-.2363-.472656-.8808zm12.8007816 1.2969l.416015.2773.05664.037.01172.01.01563.01.609375.4688.0039 0 .04297.037.375.3301.662109-.75-.375-.3301-.04687-.041-.02539-.021-.662109-.5098-.02734-.02-.08594-.057-.414063-.2774zm-15.3339848.5332l-.4296874.4082-.023438.023-.2753906.3008-.3378906.3672.7363281.6777.3378907-.3672.2675781-.291.00781-.01.40625-.3847.3632812-.3438-.6894531-.7246zm17.5410158 1.2851l.326172.377.292969.3398.0078.01.304688.4063.300781.3984.798828-.6015-.300781-.3985-.326172-.4336-.02148-.025-.298828-.3476-.328125-.377zm-19.5468751 1.0703l-.078125.1133-.019531.029-.4414062.7402-.2578125.4278.859375.5137.2558593-.4297.4375-.7305.00586-.01.060547-.086.2851563-.4101-.8222657-.5703zm21.2578121 1.2598l.244141.4375.0098.02.24414.4356.873047-.4863-.24414-.4376-.0098-.019-.244141-.4355zM27.861328 1037.1758l-.0059.041 0 0-.177735.8965-.0957.4902.980469.1934.0957-.4903.185547-.9375.0059-.041.0059-.045.05469-.4961-.99414-.1113zm-.771484 2.7637l-.03125.084-.371094.7871-.212891.4532.90625.4258.212891-.4532.378906-.8047.01563-.039.03711-.1016.175781-.4687-.935547-.3496zm-22.6660159 1.3398l.2460938.4355.2832031.5.021484.035.2402344.3516.28125.414.8261718-.5625-.28125-.414-.2285156-.3379-.2714844-.4785-.2460937-.4356zm21.2597659 1.1641l-.04492.066-.0039.01-.548828.6797-.314454.3887.777344.6289.314453-.3887.554688-.6855.02344-.031.06641-.1.283204-.4121-.826172-.5645zm-19.5214846 1.4257l.34375.3614.4414062.4629.029297.029.2695313.2382.3730468.334.6660156-.748-.3730468-.3321-.2597656-.2324-.00977-.01-.4121093-.4336-.3457032-.3613zm17.5585936.6739l-.07422.068-.01172.01-.671875.5098-.398438.3046.607422.795.396484-.3028.703125-.5371.03125-.025.08594-.078.373047-.334-.667969-.7441zm-15.2539061 1.4218l.421875.2696.546875.3476.035156.021.3085938.1641.4414061.2344.46875-.8848-.441406-.2344-.3085939-.164-.5136719-.3282-.421875-.2695zm12.8515621.1504l-.109375.059-.767578.3321-.458984.1972.396484.918.458985-.1973.791015-.3437.03711-.018.121093-.064.441407-.2343-.470704-.8828zm-10.115234 1.336l.472656.1621.611328.207.03906.012.34375.088.484375.1231.246094-.9707-.484375-.1231-.326172-.082-.591797-.2012-.472656-.1621zm7.408203-.3848l-.214844.053-.01367 0-.714843.1153-.494141.078.160156.9883.494141-.08.753906-.1211.04102-.01.228515-.057.484376-.1191-.240235-.9707zm-4.396484 1.1797l.498047.045.666015.057.04102 0 .332031 0 .5 0 .0059-1-.5 0-.3125 0-.644531-.057-.498047-.043z" color="#000" font-family="sans-serif" font-weight="400" overflow="visible" white-space="normal"/><path fill="#f8b84e" style="isolation:auto;mix-blend-mode:normal" d="m 17.04131,1036.8385 c -0.65396,0 -1.18043,0.528 -1.18043,1.1841 l 0,4.7358 -1.32799,0 c -0.57221,0 -1.03288,0.5281 -1.03288,1.1841 l 0,0.1084 c 0,0.012 0.004,0.012 0.004,0.012 a 5.9021699,5.9199017 0 0 0 2.94762,5.0066 5.9021699,5.9199017 0 0 0 5.90218,0 5.9021699,5.9199017 0 0 0 2.95109,-5.1153 l 0,-1.1955 c 0,-0.6561 -0.46067,-1.184 -1.03288,-1.184 l -6.04973,0 0,-3.5519 c 0,-0.656 -0.52648,-1.184 -1.18044,-1.184 z" color="#000" overflow="visible"/></g></svg>